<svg width="38" height="38" viewBox="0 0 38 38" fill="none" xmlns="http://www.w3.org/2000/svg">
<path d="M15.2924 20.7598H13.6994C13.6287 20.7603 13.5611 20.7887 13.5114 20.8389C13.4616 20.8891 13.4338 20.9569 13.434 21.0276V21.5625C13.434 21.7098 13.5527 21.8285 13.6994 21.8285H15.2924C15.4379 21.8285 15.5578 21.7098 15.5578 21.5625V21.0276C15.558 20.9569 15.5301 20.8891 15.4804 20.8389C15.4306 20.7887 15.363 20.7603 15.2924 20.7598ZM18.4779 20.7598H16.8848C16.8142 20.7603 16.7466 20.7887 16.6968 20.8389C16.6471 20.8891 16.6193 20.9569 16.6194 21.0276V21.5625C16.6194 21.7098 16.7382 21.8285 16.8848 21.8285H18.4779C18.6233 21.8285 18.7433 21.7098 18.7433 21.5625V21.0276C18.7434 20.9569 18.7156 20.8891 18.6658 20.8389C18.6161 20.7887 18.5485 20.7603 18.4779 20.7598ZM11.8754 17.2424H12.6633V18.8586H11.8754V17.2424ZM13.8739 17.2424H14.6612V18.8586H13.8739V17.2424ZM15.8707 17.2424H16.6592V18.8586H15.8707V17.2424ZM17.8693 17.2424H18.6566V18.8586H17.8693V17.2424ZM19.866 17.2424H20.6545V18.8586H19.866V17.2424ZM21.8652 17.2424H22.6525V18.8586H21.8652V17.2424ZM23.862 17.2424H24.6499V18.8586H23.862V17.2424ZM25.86 17.2424H26.6479V18.8586H25.86V17.2424ZM8.07773 7.76201C7.88799 7.60376 7.71273 7.4289 7.55405 7.23951L7.34742 6.9836L7.02561 7.03704C6.47402 7.13026 5.94617 7.1261 5.42248 6.9652C5.14778 6.87974 4.88533 6.75899 4.6417 6.60598C4.37867 6.45042 4.13345 6.25151 3.87695 6.02173C3.9102 6.37263 4.06042 6.69801 4.25339 7.00082C4.45764 7.29473 4.72127 7.56726 5.04427 7.7632C5.59764 8.11588 6.27986 8.22098 6.91398 8.15507C7.09389 8.3326 7.27795 8.47213 7.48814 8.60573C7.7773 8.7886 8.0997 8.92279 8.43636 8.99938C9.11205 9.1502 9.83939 9.00473 10.328 8.59207C9.69095 8.57604 9.16252 8.45135 8.71186 8.19545C8.48639 8.07276 8.27393 7.92754 8.07773 7.76201ZM14.9314 9.8247C14.7667 9.75306 14.6143 9.65609 14.4795 9.53732C14.36 9.43148 14.2543 9.31099 14.1649 9.1787C14.0803 9.05588 14.0085 8.92478 13.9505 8.78742L13.7795 8.32963L13.3152 8.43235C12.8699 8.53032 12.4465 8.58495 12.0339 8.52735C11.6224 8.47332 11.1925 8.28926 10.7793 7.90095C10.7656 8.4846 11.1795 9.06113 11.7519 9.34613C12.1936 9.56582 12.6817 9.61867 13.14 9.57473C13.2131 9.68042 13.2932 9.77601 13.387 9.87338C13.5842 10.0687 13.8288 10.2273 14.0942 10.3134C14.6327 10.4903 15.1915 10.3632 15.5578 10.0414C15.3203 9.96898 15.1113 9.91317 14.9314 9.8247Z" fill="#FF9900"/>
<path d="M33.5831 30.7343C33.6543 28.9026 34.1763 28.0618 34.9648 26.7882L35.1548 26.4812C36.6219 24.0944 37.1189 22.2324 36.6308 20.9445C36.2959 20.0581 35.6197 19.7636 35.4326 19.6971C34.5313 19.3088 33.1894 19.1021 31.5501 19.1021C30.8323 19.1021 29.7308 19.1484 28.3171 19.3408V15.8917H26.1505V14.304H21.397L19.7481 10.979C19.6834 10.9511 19.6157 10.9309 19.5498 10.906C19.5161 10.587 19.4023 10.2818 19.2188 10.0187C19.0354 9.75565 18.7883 9.54329 18.5007 9.40144C18.479 8.83159 18.2947 8.27985 17.9695 7.81142C17.6443 7.343 17.1917 6.97748 16.6654 6.75806C16.4155 6.10312 15.9727 5.53946 15.3955 5.14166C14.8183 4.74387 14.134 4.53068 13.433 4.53031C13.1698 4.53071 12.9105 4.56079 12.6552 4.62056C12.2958 4.22827 11.8615 3.91182 11.378 3.68984C10.8945 3.46785 10.3714 3.34482 9.83963 3.32797C9.01728 2.01341 7.56378 1.1875 6.00044 1.1875C3.49837 1.1875 1.46241 3.2395 1.46241 5.76175C1.46241 8.28281 3.49778 10.3348 6.00044 10.3348C6.30465 10.3348 6.60806 10.3035 6.90591 10.2416C7.27444 10.6114 7.71256 10.9046 8.19499 11.1043C8.67742 11.3039 9.19461 11.406 9.71672 11.4047C10.3483 11.4056 10.9709 11.2551 11.5324 10.966C12.0893 11.3341 12.7377 11.5348 13.4134 11.5389C13.8036 11.9598 14.3095 12.2558 14.8675 12.3898L14.6288 14.3058H12.3975L9.74938 15.2143V16.9183L8.12428 17.6647V20.7432H9.71731V22.0643L6.00103 23.9364V27.5821C3.68956 28.2411 2.24319 28.4424 2.21409 28.446L1.73731 28.5089V30.7373H1.1875V36.8125H36.2645V30.7367H33.5825L33.5831 30.7343ZM13.7809 10.675C13.6663 10.6905 13.5523 10.7107 13.4336 10.7107C12.7451 10.7098 12.0843 10.4395 11.5924 9.95778C11.0494 10.3592 10.392 10.576 9.71672 10.5765C9.2254 10.5759 8.74094 10.4611 8.30157 10.2412C7.8622 10.0213 7.47995 9.70233 7.18497 9.30941C6.80358 9.4395 6.40341 9.5061 6.00044 9.50653C3.94784 9.50653 2.28475 7.83038 2.28475 5.76175C2.28475 3.69313 3.94784 2.01578 6.00044 2.01578C7.49075 2.01578 8.77206 2.90106 9.36462 4.17703C9.9467 4.11243 10.5353 4.21001 11.0654 4.45897C11.5955 4.70793 12.0464 5.09859 12.3684 5.58778C12.7035 5.43778 13.0665 5.36009 13.4336 5.35978C14.6882 5.35978 15.7326 6.23913 16.0105 7.41831C16.4851 7.52399 16.9095 7.78861 17.2132 8.16837C17.517 8.54813 17.6819 9.02024 17.6807 9.50653C17.6807 9.69534 17.6492 9.87466 17.6029 10.0492C17.6296 10.0474 17.6546 10.0415 17.6807 10.0415C18.1028 10.0415 18.4632 10.2915 18.6348 10.6501C18.3202 10.5913 18.0008 10.5609 17.6807 10.5592C16.8411 10.5592 15.7326 10.7617 15.026 11.1126L14.9702 11.5609C14.4808 11.417 14.0589 11.1028 13.7809 10.675ZM10.7789 16.4445H27.7691V19.4239C27.3283 19.4908 26.8892 19.5682 26.4522 19.6561H10.7789V16.4445ZM19.8241 21.6582C18.3102 22.2682 16.832 22.9632 15.3965 23.7399C14.4059 24.2737 13.3972 24.7729 12.372 25.2368V20.2083H24.1205C23.3686 20.4128 22.6233 20.6407 21.8856 20.8917C21.8632 20.8523 21.8308 20.8194 21.7918 20.7963C21.7527 20.7732 21.7083 20.7606 21.663 20.7599H20.0699C19.9994 20.7605 19.9319 20.789 19.8823 20.8392C19.8327 20.8893 19.805 20.9571 19.8051 21.0277V21.5626C19.8055 21.5967 19.8119 21.6285 19.8241 21.6582ZM10.2481 23.905C10.2481 23.7577 10.3574 23.5873 10.4886 23.5238L11.6007 23.0013C11.7331 22.9383 11.8406 23.0078 11.8406 23.1551V24.3681C11.8369 24.4454 11.8117 24.5202 11.7679 24.5839C11.724 24.6477 11.6633 24.698 11.5924 24.7291L10.4969 25.1412C10.3598 25.1928 10.2475 25.1144 10.2475 24.9672L10.2481 23.905ZM8.38969 24.7784C8.38969 24.6311 8.49894 24.4595 8.63075 24.3972L9.47744 23.9994C9.60925 23.937 9.71731 24.0065 9.71731 24.1537V25.1667C9.71366 25.244 9.68849 25.3188 9.64464 25.3825C9.60079 25.4463 9.54 25.4966 9.46912 25.5277L8.63966 25.84C8.50309 25.8911 8.39028 25.8127 8.39028 25.6654L8.38969 24.7784ZM6.53125 25.6512C6.53125 25.5039 6.6405 25.3335 6.77231 25.2712L7.619 24.8728C7.75081 24.8104 7.85888 24.8799 7.85888 25.0272V25.8667C7.85522 25.944 7.83006 26.0188 7.78621 26.0826C7.74236 26.1464 7.68157 26.1966 7.61069 26.2277L6.78122 26.5394C6.64466 26.5905 6.53184 26.5127 6.53184 26.3655V25.6512H6.53125ZM2.83278 29.4654C4.40859 29.1935 9.64309 28.0986 15.9137 24.7137C23.4436 20.6465 29.3574 20.2077 31.5507 20.2077C33.0327 20.2077 34.2641 20.39 35.0182 20.7207L35.0817 20.7432C35.0847 20.7444 35.432 20.8739 35.6072 21.3376C35.6642 21.4872 35.7105 21.701 35.7129 21.9872C35.4027 21.7198 35.052 21.5036 34.6738 21.3465C31.3856 20.4185 23.867 21.093 15.5301 25.5954C9.56769 28.8147 4.465 29.5783 2.83278 29.7487V29.4654ZM32.4093 33.329C30.5164 33.7054 22.7513 35.1548 15.6322 35.1548C11.8358 35.1548 8.81184 34.7468 6.64228 33.9435C5.80747 33.6342 4.51428 33.0291 2.83278 31.3405V30.2842C4.48756 30.115 9.70959 29.3455 15.7801 26.0674C23.8664 21.701 31.328 20.9908 34.4797 21.8447C34.8145 21.9806 35.2925 22.2395 35.644 22.6664C35.5027 23.4086 35.1126 24.4524 34.222 25.9L34.0355 26.2034C33.2168 27.5233 32.5702 28.5665 32.4882 30.6838C32.4418 31.5648 32.4155 32.4468 32.4093 33.329Z" fill="#FF9900"/>
</svg>
