<svg width="40" height="40" viewBox="0 0 40 40" fill="none" xmlns="http://www.w3.org/2000/svg">
<path d="M1 1H39" stroke="#FF9900" stroke-width="2" stroke-linecap="round" stroke-linejoin="round"/>
<path d="M33.2988 1H6.69883C5.64949 1 4.79883 1.85066 4.79883 2.9V37.0999C4.79883 38.1493 5.64949 38.9999 6.69883 38.9999H33.2988C34.3482 38.9999 35.1988 38.1493 35.1988 37.0999V2.9C35.1988 1.85066 34.3482 1 33.2988 1Z" stroke="#FF9900" stroke-width="2" stroke-linejoin="round"/>
<path d="M16.1992 27.6001H23.7992V39.0001H16.1992V27.6001Z" stroke="#FF9900" stroke-width="2" stroke-linecap="round" stroke-linejoin="round"/>
<path d="M11.4512 8.59985H13.3512M11.4512 14.2998H13.3512M19.0512 8.59985H20.9512M19.0512 14.2998H20.9512M26.6512 8.59985H28.5512M26.6512 14.2998H28.5512" stroke="#FF9900" stroke-width="2" stroke-linecap="round"/>
<path d="M1 39.0001H39M23.8 27.6001H25.7C26.2244 27.6001 26.6595 27.1707 26.5588 26.6558C26.0344 23.9578 23.2974 21.9001 20 21.9001C16.7025 21.9001 13.9656 23.9569 13.4412 26.6558C13.3405 27.1707 13.7756 27.6001 14.3 27.6001H16.2" stroke="#FF9900" stroke-width="2" stroke-linecap="round" stroke-linejoin="round"/>
</svg>
