<svg width="38" height="38" viewBox="0 0 38 38" fill="none" xmlns="http://www.w3.org/2000/svg">
<path d="M13.6294 7.01405C13.5143 6.6434 13.3688 6.28372 13.1947 5.93897C12.6368 4.83539 11.7628 3.83314 10.6608 3.27422C10.5262 3.20592 10.38 3.16591 10.2305 3.15647C10.081 3.14704 9.93119 3.16836 9.78962 3.21923C9.64806 3.27011 9.51749 3.34952 9.40539 3.45296C9.29328 3.55639 9.20184 3.68181 9.13627 3.82205C9.07069 3.9623 9.03228 4.11463 9.02323 4.27034C9.01417 4.42605 9.03464 4.58209 9.08348 4.72956C9.13232 4.87702 9.20856 5.01303 9.30785 5.1298C9.40715 5.24658 9.52755 5.34183 9.66219 5.41014C10.2428 5.70305 10.7961 6.29205 11.1776 7.04572C11.279 7.2505 11.3651 7.45633 11.436 7.66322C10.5694 7.42489 9.66504 7.37477 8.77907 7.51597C7.84632 7.66236 6.95491 8.01684 6.16581 8.55517C5.3767 9.09351 4.70851 9.803 4.20691 10.6351C4.04565 10.9016 3.99262 11.2238 4.05946 11.531C4.12631 11.8382 4.30756 12.1051 4.56335 12.2731C4.81913 12.4411 5.1285 12.4963 5.42339 12.4267C5.71828 12.3571 5.97453 12.1682 6.13579 11.9018C6.46286 11.358 6.89901 10.8943 7.4143 10.5425C7.92959 10.1908 8.51183 9.95935 9.12107 9.86406C10.0181 9.72026 10.9357 9.87893 11.74 10.3169C10.1197 11.191 8.8152 12.5888 8.02211 14.3006C7.95683 14.4409 7.91874 14.5933 7.91 14.749C7.90125 14.9046 7.92204 15.0606 7.97115 15.2079C8.02027 15.3552 8.09677 15.491 8.19627 15.6076C8.29577 15.7241 8.41633 15.8191 8.55107 15.8871C8.6858 15.955 8.83207 15.9947 8.98153 16.0038C9.13099 16.0129 9.28071 15.9913 9.42214 15.9401C9.56356 15.889 9.69393 15.8093 9.8058 15.7056C9.91766 15.602 10.0088 15.4764 10.0741 15.3361C10.7092 13.9616 11.7949 12.8689 13.1354 12.2549C13.7282 13.7701 14.2146 15.2395 14.5231 16.9273C14.9153 19.0727 15.0263 21.6203 14.6265 25.0815C10.9799 25.905 7.68993 27.9431 5.25419 30.8876C5.11152 31.0598 5.01933 31.271 4.98859 31.4962C4.95786 31.7215 4.98986 31.9511 5.08081 32.1579C5.17175 32.3647 5.3178 32.54 5.50159 32.6628C5.68538 32.7857 5.89917 32.8509 6.11755 32.8509H30.4375C30.6559 32.8509 30.8697 32.7857 31.0535 32.6628C31.2373 32.54 31.3833 32.3647 31.4743 32.1579C31.5652 31.9511 31.5972 31.7215 31.5665 31.4962C31.5358 31.271 31.4436 31.0598 31.3009 30.8876C29.5419 28.761 27.3272 27.0954 24.8358 26.0255C22.3445 24.9555 19.6464 24.5112 16.9597 24.7284C17.2987 21.3812 17.1801 18.7671 16.7621 16.4824C16.4429 14.7281 15.9489 13.1954 15.3835 11.7134C16.6994 11.6599 17.9969 12.0484 19.0847 12.8217C19.2086 12.9094 19.3479 12.9707 19.4947 13.0023C19.6414 13.0338 19.7926 13.035 19.9398 13.0056C20.0869 12.9763 20.2271 12.9171 20.3522 12.8313C20.4774 12.7456 20.5851 12.635 20.6693 12.5058C20.7534 12.3767 20.8123 12.2316 20.8426 12.0788C20.8729 11.9259 20.874 11.7684 20.8458 11.6151C20.8177 11.4618 20.7608 11.3158 20.6785 11.1855C20.5962 11.0551 20.49 10.9429 20.366 10.8552C18.7231 9.69119 16.7384 9.1686 14.7618 9.37955C15.2026 8.60372 15.8744 7.96247 16.7271 7.57455C17.291 7.31658 17.9018 7.18868 18.5175 7.19961C19.1333 7.21054 19.7395 7.36005 20.2946 7.63789C20.5637 7.75291 20.8648 7.75643 21.1363 7.64773C21.4079 7.53902 21.6292 7.32631 21.7551 7.05315C21.881 6.77999 21.9018 6.46704 21.8134 6.17837C21.725 5.8897 21.534 5.64716 21.2795 5.50039C20.4291 5.07473 19.5004 4.84546 18.5571 4.82824C17.6137 4.81102 16.6779 5.00628 15.8136 5.40064C14.9863 5.77613 14.2426 6.32601 13.6294 7.01564M27.624 30.4806H8.93259C11.5792 28.258 14.8779 27.0485 18.2775 27.0543C21.6773 27.049 24.9762 28.2593 27.624 30.4806Z" fill="#FF9900"/>
<path d="M27.3987 11.875C26.2901 11.875 25.2269 12.3337 24.443 13.1503C23.6591 13.9669 23.2188 15.0744 23.2188 16.2292C23.2188 17.384 23.6591 18.4915 24.443 19.308C25.2269 20.1246 26.2901 20.5833 27.3987 20.5833C28.5074 20.5833 29.5706 20.1246 30.3545 19.308C31.1384 18.4915 31.5787 17.384 31.5787 16.2292C31.5787 15.0744 31.1384 13.9669 30.3545 13.1503C29.5706 12.3337 28.5074 11.875 27.3987 11.875ZM25.4987 16.2292C25.4987 15.7043 25.6989 15.2009 26.0552 14.8297C26.4116 14.4585 26.8948 14.25 27.3987 14.25C27.9027 14.25 28.3859 14.4585 28.7423 14.8297C29.0986 15.2009 29.2987 15.7043 29.2987 16.2292C29.2987 16.7541 29.0986 17.2575 28.7423 17.6286C28.3859 17.9998 27.9027 18.2083 27.3987 18.2083C26.8948 18.2083 26.4116 17.9998 26.0552 17.6286C25.6989 17.2575 25.4987 16.7541 25.4987 16.2292Z" fill="#FF9900"/>
</svg>
