<svg width="25" height="25" viewBox="0 0 25 25" fill="none" xmlns="http://www.w3.org/2000/svg">
<path d="M15.7131 0C10.6417 0 6.51 4.13172 6.51 9.20313C6.51 11.3828 7.29469 13.3755 8.56859 14.9556L0 23.5213L1.395 24.9163L9.96166 16.3477C11.5398 17.6216 13.5334 18.4063 15.7131 18.4063C20.7845 18.4063 24.9163 14.2745 24.9163 9.20313C24.9163 4.13172 20.7845 0 15.7131 0ZM15.7131 1.9375C19.7373 1.9375 22.9788 5.17894 22.9788 9.20313C22.9788 13.2273 19.7373 16.4688 15.7131 16.4688C11.6889 16.4688 8.4475 13.2273 8.4475 9.20313C8.4475 5.17894 11.6889 1.9375 15.7131 1.9375Z" fill="white"/>
</svg>
