<svg width="34" height="34" viewBox="0 0 34 34" fill="none" xmlns="http://www.w3.org/2000/svg">
<path d="M13.3086 25.6148C13.3086 27.5733 14.0866 29.4515 15.4714 30.8364C16.8563 32.2212 18.7346 32.9992 20.693 32.9992H25.616C27.5745 32.9992 29.4527 32.2212 30.8376 30.8364C32.2224 29.4515 33.0004 27.5733 33.0004 25.6148V1" stroke="#FF9900" stroke-width="2" stroke-linecap="round" stroke-linejoin="round"/>
<path d="M25.6148 13.3075C25.6148 12.0018 25.0961 10.7497 24.1729 9.82642C23.2497 8.90319 21.9975 8.38452 20.6918 8.38452H5.92296C4.61731 8.38452 3.36514 8.90319 2.4419 9.82642C1.51867 10.7497 1 12.0018 1 13.3075V18.2304C1 19.5361 1.51867 20.7883 2.4419 21.7115C3.36514 22.6347 4.61731 23.1534 5.92296 23.1534H8.38444L11.2644 18.8458C11.4895 18.5107 11.7937 18.2362 12.1499 18.0464C12.5062 17.8565 12.9037 17.7573 13.3074 17.7573C13.7111 17.7573 14.1086 17.8565 14.4649 18.0464C14.8211 18.2362 15.1253 18.5107 15.3504 18.8458L18.2304 23.1534H20.6918C21.9975 23.1534 23.2497 22.6347 24.1729 21.7115C25.0961 20.7883 25.6148 19.5361 25.6148 18.2304V13.3075Z" stroke="#FF9900" stroke-width="2" stroke-linecap="round" stroke-linejoin="round"/>
</svg>
