<svg width="38" height="38" viewBox="0 0 38 38" fill="none" xmlns="http://www.w3.org/2000/svg">
<path d="M7.91602 26.9167C7.91602 27.7565 8.24965 28.562 8.84351 29.1558C9.43738 29.7497 10.2428 30.0833 11.0827 30.0833C11.9225 30.0833 12.728 29.7497 13.3219 29.1558C13.9157 28.562 14.2493 27.7565 14.2493 26.9167C14.2493 26.0768 13.9157 25.2714 13.3219 24.6775C12.728 24.0836 11.9225 23.75 11.0827 23.75C10.2428 23.75 9.43738 24.0836 8.84351 24.6775C8.24965 25.2714 7.91602 26.0768 7.91602 26.9167ZM23.7493 26.9167C23.7493 27.7565 24.083 28.562 24.6768 29.1558C25.2707 29.7497 26.0762 30.0833 26.916 30.0833C27.7559 30.0833 28.5613 29.7497 29.1552 29.1558C29.7491 28.562 30.0827 27.7565 30.0827 26.9167C30.0827 26.0768 29.7491 25.2714 29.1552 24.6775C28.5613 24.0836 27.7559 23.75 26.916 23.75C26.0762 23.75 25.2707 24.0836 24.6768 24.6775C24.083 25.2714 23.7493 26.0768 23.7493 26.9167Z" stroke="#FF9900" stroke-width="2" stroke-linecap="round" stroke-linejoin="round"/>
<path d="M7.91667 26.9167H4.75V17.4167M4.75 17.4167L7.91667 9.5H22.1667L28.5 17.4167M4.75 17.4167H28.5M28.5 17.4167H30.0833C30.9232 17.4167 31.7286 17.7503 32.3225 18.3442C32.9164 18.938 33.25 19.7435 33.25 20.5833V26.9167H30.0833M23.75 26.9167H14.25M19 17.4167V9.5" stroke="#FF9900" stroke-width="2" stroke-linecap="round" stroke-linejoin="round"/>
</svg>
